<svg width="38" height="38" viewBox="0 0 38 38" fill="none" xmlns="http://www.w3.org/2000/svg">
<g clip-path="url(#clip0_106_60)">
<path d="M19 23.75C21.6234 23.75 23.75 21.6234 23.75 19C23.75 16.3766 21.6234 14.25 19 14.25C16.3766 14.25 14.25 16.3766 14.25 19C14.25 21.6234 16.3766 23.75 19 23.75Z" stroke="black" stroke-width="2" stroke-linecap="round" stroke-linejoin="round"/>
<path d="M30.7166 23.7499C30.5059 24.2275 30.443 24.7572 30.5361 25.2708C30.6293 25.7845 30.8741 26.2584 31.2391 26.6316L31.3341 26.7266C31.6286 27.0207 31.8621 27.3699 32.0215 27.7544C32.1809 28.1388 32.2629 28.5509 32.2629 28.967C32.2629 29.3831 32.1809 29.7952 32.0215 30.1796C31.8621 30.5641 31.6286 30.9133 31.3341 31.2074C31.04 31.5018 30.6908 31.7354 30.3064 31.8948C29.9219 32.0541 29.5099 32.1362 29.0937 32.1362C28.6776 32.1362 28.2655 32.0541 27.8811 31.8948C27.4967 31.7354 27.1474 31.5018 26.8533 31.2074L26.7583 31.1124C26.3852 30.7474 25.9112 30.5025 25.3976 30.4094C24.884 30.3163 24.3542 30.3792 23.8766 30.5899C23.4083 30.7906 23.009 31.1239 22.7276 31.5487C22.4463 31.9735 22.2953 32.4713 22.2933 32.9808V33.2499C22.2933 34.0898 21.9597 34.8952 21.3658 35.4891C20.772 36.083 19.9665 36.4166 19.1266 36.4166C18.2868 36.4166 17.4813 36.083 16.8875 35.4891C16.2936 34.8952 15.96 34.0898 15.96 33.2499V33.1074C15.9477 32.5833 15.7781 32.0751 15.4731 31.6487C15.1682 31.2223 14.742 30.8975 14.25 30.7166C13.7724 30.5058 13.2427 30.4429 12.729 30.5361C12.2154 30.6292 11.7415 30.8741 11.3683 31.2391L11.2733 31.3341C10.9792 31.6285 10.63 31.8621 10.2455 32.0214C9.86111 32.1808 9.44904 32.2628 9.0329 32.2628C8.61675 32.2628 8.20468 32.1808 7.82025 32.0214C7.43582 31.8621 7.08658 31.6285 6.79248 31.3341C6.49805 31.04 6.26448 30.6907 6.10512 30.3063C5.94576 29.9219 5.86374 29.5098 5.86374 29.0937C5.86374 28.6775 5.94576 28.2655 6.10512 27.881C6.26448 27.4966 6.49805 27.1473 6.79248 26.8532L6.88748 26.7583C7.2525 26.3851 7.49736 25.9111 7.59049 25.3975C7.68362 24.8839 7.62074 24.3541 7.40998 23.8766C7.20927 23.4083 6.87601 23.0089 6.45122 22.7276C6.02642 22.4463 5.52864 22.2953 5.01915 22.2933H4.74998C3.91013 22.2933 3.10467 21.9596 2.51081 21.3658C1.91694 20.7719 1.58331 19.9664 1.58331 19.1266C1.58331 18.2867 1.91694 17.4813 2.51081 16.8874C3.10467 16.2935 3.91013 15.9599 4.74998 15.9599H4.89248C5.41655 15.9477 5.92482 15.778 6.3512 15.4731C6.77759 15.1681 7.10236 14.7419 7.28331 14.2499C7.49408 13.7724 7.55695 13.2426 7.46382 12.729C7.37069 12.2154 7.12583 11.7414 6.76081 11.3683L6.66581 11.2733C6.37139 10.9792 6.13782 10.6299 5.97846 10.2455C5.8191 9.86105 5.73707 9.44898 5.73707 9.03283C5.73707 8.61669 5.8191 8.20462 5.97846 7.82019C6.13782 7.43576 6.37139 7.08652 6.66581 6.79242C6.95991 6.49799 7.30916 6.26442 7.69359 6.10506C8.07801 5.9457 8.49008 5.86368 8.90623 5.86368C9.32238 5.86368 9.73445 5.9457 10.1189 6.10506C10.5033 6.26442 10.8525 6.49799 11.1466 6.79242L11.2416 6.88742C11.6148 7.25243 12.0888 7.4973 12.6024 7.59043C13.116 7.68356 13.6458 7.62068 14.1233 7.40992H14.25C14.7183 7.20921 15.1177 6.87595 15.399 6.45116C15.6803 6.02636 15.8313 5.52858 15.8333 5.01909V4.74992C15.8333 3.91007 16.1669 3.10461 16.7608 2.51075C17.3547 1.91688 18.1601 1.58325 19 1.58325C19.8398 1.58325 20.6453 1.91688 21.2391 2.51075C21.833 3.10461 22.1666 3.91007 22.1666 4.74992V4.89242C22.1687 5.40191 22.3196 5.8997 22.601 6.32449C22.8823 6.74928 23.2817 7.08254 23.75 7.28325C24.2275 7.49402 24.7573 7.55689 25.2709 7.46376C25.7845 7.37063 26.2585 7.12577 26.6316 6.76075L26.7266 6.66575C27.0207 6.37133 27.37 6.13776 27.7544 5.9784C28.1388 5.81904 28.5509 5.73701 28.9671 5.73701C29.3832 5.73701 29.7953 5.81904 30.1797 5.9784C30.5641 6.13776 30.9134 6.37133 31.2075 6.66575C31.5019 6.95985 31.7355 7.3091 31.8948 7.69352C32.0542 8.07795 32.1362 8.49002 32.1362 8.90617C32.1362 9.32232 32.0542 9.73439 31.8948 10.1188C31.7355 10.5032 31.5019 10.8525 31.2075 11.1466L31.1125 11.2416C30.7475 11.6147 30.5026 12.0887 30.4095 12.6023C30.3163 13.1159 30.3792 13.6457 30.59 14.1233V14.2499C30.7907 14.7182 31.1239 15.1176 31.5487 15.3989C31.9735 15.6803 32.4713 15.8312 32.9808 15.8333H33.25C34.0898 15.8333 34.8953 16.1669 35.4891 16.7607C36.083 17.3546 36.4166 18.1601 36.4166 18.9999C36.4166 19.8398 36.083 20.6452 35.4891 21.2391C34.8953 21.833 34.0898 22.1666 33.25 22.1666H33.1075C32.598 22.1686 32.1002 22.3196 31.6754 22.6009C31.2506 22.8822 30.9174 23.2816 30.7166 23.7499Z" stroke="black" stroke-width="2" stroke-linecap="round" stroke-linejoin="round"/>
</g>
<defs>
<clipPath id="clip0_106_60">
<rect width="38" height="38" fill="white"/>
</clipPath>
</defs>
</svg>
