<svg width="38" height="38" viewBox="0 0 38 38" fill="none" xmlns="http://www.w3.org/2000/svg">
<path d="M26.9167 33.25V30.0833C26.9167 28.4036 26.2494 26.7927 25.0617 25.605C23.8739 24.4173 22.263 23.75 20.5833 23.75H7.91666C6.23696 23.75 4.62605 24.4173 3.43832 25.605C2.25059 26.7927 1.58333 28.4036 1.58333 30.0833V33.25" stroke="black" stroke-width="2" stroke-linecap="round" stroke-linejoin="round"/>
<path d="M14.25 17.4167C17.7478 17.4167 20.5833 14.5811 20.5833 11.0833C20.5833 7.58553 17.7478 4.75 14.25 4.75C10.7522 4.75 7.91667 7.58553 7.91667 11.0833C7.91667 14.5811 10.7522 17.4167 14.25 17.4167Z" stroke="black" stroke-width="2" stroke-linecap="round" stroke-linejoin="round"/>
<path d="M36.4167 33.25V30.0833C36.4156 28.68 35.9486 27.3169 35.0888 26.2078C34.2291 25.0988 33.0254 24.3066 31.6667 23.9558" stroke="black" stroke-width="2" stroke-linecap="round" stroke-linejoin="round"/>
<path d="M25.3333 4.95581C26.6957 5.30462 27.9031 6.09692 28.7654 7.2078C29.6277 8.31868 30.0957 9.68496 30.0957 11.0912C30.0957 12.4975 29.6277 13.8638 28.7654 14.9747C27.9031 16.0855 26.6957 16.8778 25.3333 17.2266" stroke="black" stroke-width="2" stroke-linecap="round" stroke-linejoin="round"/>
</svg>
