<svg viewBox="0 0 77.9117 74" xmlns="http://www.w3.org/2000/svg" xmlns:xlink="http://www.w3.org/1999/xlink" width="77.911743" height="74.000000" fill="none" customFrame="#000000">
	<g id="Group 11">
		<path id="Vector" d="M63.4341 49.6019C63.6317 50.634 64.1513 51.5865 64.9258 52.3364L65.1274 52.5273C65.7521 53.1183 66.2477 53.8201 66.5858 54.5927C66.924 55.3652 67.098 56.1933 67.098 57.0295C67.098 57.8658 66.924 58.6939 66.5858 59.4664C66.2477 60.239 65.7521 60.9408 65.1274 61.5318C64.5033 62.1235 63.7623 62.5929 62.9466 62.9131C62.1309 63.2334 61.2565 63.3982 60.3735 63.3982C59.4905 63.3982 58.6161 63.2334 57.8004 62.9131C56.9847 62.5929 56.2437 62.1235 55.6196 61.5318L55.418 61.3409C54.6263 60.6074 53.6206 60.1153 52.5308 59.9282C51.4409 59.741 50.3168 59.8674 49.3035 60.2909C48.3099 60.6942 47.4624 61.364 46.8655 62.2176C46.2686 63.0713 45.9482 64.0716 45.9439 65.0955L45.9439 65.6364C45.9439 67.3241 45.236 68.9427 43.9759 70.1361C42.7158 71.3295 41.0067 72 39.2247 72C37.4426 72 35.7335 71.3295 34.4734 70.1361C33.2133 68.9427 32.5054 67.3241 32.5054 65.6364L32.5054 65.35C32.4794 64.2968 32.1194 63.2754 31.4724 62.4186C30.8253 61.5617 29.921 60.9091 28.877 60.5455C27.8637 60.1219 26.7396 59.9956 25.6498 60.1827C24.5599 60.3699 23.5543 60.8619 22.7625 61.5955L22.5609 61.7864C21.9369 62.378 21.1958 62.8474 20.3801 63.1677C19.5644 63.4879 18.6901 63.6527 17.807 63.6527C16.924 63.6527 16.0497 63.4879 15.234 63.1677C14.4183 62.8474 13.6772 62.378 13.0532 61.7864C12.4284 61.1954 11.9328 60.4935 11.5947 59.721C11.2565 58.9485 11.0825 58.1204 11.0825 57.2841C11.0825 56.4478 11.2565 55.6197 11.5947 54.8472C11.9328 54.0747 12.4284 53.3728 13.0532 52.7818L13.2547 52.5909C14.0293 51.841 14.5488 50.8886 14.7464 49.8564C14.944 48.8243 14.8106 47.7597 14.3634 46.8C13.9375 45.8589 13.2304 45.0563 12.3291 44.491C11.4277 43.9256 10.3715 43.6223 9.29039 43.6182L8.71925 43.6182C6.9372 43.6182 5.22813 42.9477 3.96802 41.7543C2.70792 40.5609 2 38.9423 2 37.2545C2 35.5668 2.70792 33.9482 3.96802 32.7548C5.22813 31.5614 6.9372 30.8909 8.71925 30.8909L9.02162 30.8909C10.1336 30.8663 11.2121 30.5254 12.1168 29.9125C13.0216 29.2997 13.7107 28.4432 14.0947 27.4545C14.5419 26.4949 14.6753 25.4303 14.4777 24.3981C14.2801 23.366 13.7605 22.4135 12.986 21.6636L12.7844 21.4727C12.1597 20.8817 11.6641 20.1799 11.3259 19.4073C10.9878 18.6348 10.8137 17.8067 10.8137 16.9705C10.8137 16.1342 10.9878 15.3061 11.3259 14.5336C11.6641 13.761 12.1597 13.0592 12.7844 12.4682C13.4084 11.8765 14.1495 11.4071 14.9652 11.0869C15.7809 10.7666 16.6553 10.6018 17.5383 10.6018C18.4213 10.6018 19.2956 10.7666 20.1113 11.0869C20.927 11.4071 21.6681 11.8765 22.2921 12.4682L22.4937 12.6591C23.2855 13.3926 24.2912 13.8847 25.381 14.0718C26.4709 14.259 27.5949 14.1326 28.6082 13.7091L28.877 13.7091C29.8707 13.3058 30.7181 12.636 31.3151 11.7824C31.912 10.9287 32.2323 9.92841 32.2366 8.90455L32.2366 8.36364C32.2366 6.6759 32.9446 5.05728 34.2047 3.86387C35.4648 2.67045 37.1738 2 38.9559 2C40.7379 2 42.447 2.67045 43.7071 3.86387C44.9672 5.05728 45.6751 6.6759 45.6751 8.36364L45.6751 8.65C45.6794 9.67387 45.9998 10.6742 46.5967 11.5278C47.1936 12.3815 48.0411 13.0512 49.0348 13.4545C50.0481 13.8781 51.1721 14.0044 52.262 13.8173C53.3518 13.6301 54.3575 13.1381 55.1493 12.4045L55.3509 12.2136C55.9749 11.622 56.716 11.1526 57.5317 10.8323C58.3474 10.5121 59.2217 10.3473 60.1047 10.3473C60.9877 10.3473 61.8621 10.5121 62.6778 10.8323C63.4935 11.1526 64.2346 11.622 64.8586 12.2136C65.4833 12.8046 65.9789 13.5065 66.3171 14.279C66.6552 15.0515 66.8293 15.8796 66.8293 16.7159C66.8293 17.5522 66.6552 18.3803 66.3171 19.1528C65.9789 19.9253 65.4833 20.6272 64.8586 21.2182L64.657 21.4091C63.8825 22.159 63.3629 23.1114 63.1653 24.1436C62.9677 25.1757 63.1011 26.2403 63.5483 27.2L63.5483 27.4545C63.9742 28.3956 64.6814 29.1982 65.5827 29.7636C66.4841 30.3289 67.5403 30.6323 68.6214 30.6364L69.1925 30.6364C70.9746 30.6364 72.6836 31.3068 73.9437 32.5002C75.2038 33.6936 75.9118 35.3123 75.9118 37C75.9118 38.6877 75.2038 40.3064 73.9437 41.4998C72.6836 42.6932 70.9746 43.3636 69.1925 43.3636L68.8902 43.3636C67.8091 43.3677 66.7528 43.6711 65.8515 44.2364C64.9501 44.8018 64.243 45.6044 63.8171 46.5455C63.3699 47.5051 63.2365 48.5697 63.4341 49.6019Z" fill-rule="nonzero" stroke="rgb(0,0,0)" stroke-linecap="round" stroke-linejoin="round" stroke-width="4" />
		<path id="Vector" d="M38.9556 46.5455C33.3892 46.5455 28.8767 42.2719 28.8767 37C28.8767 31.7282 33.3892 27.4546 38.9556 27.4546C44.522 27.4546 49.0345 31.7282 49.0345 37C49.0345 42.2719 44.522 46.5455 38.9556 46.5455Z" stroke="rgb(0,0,0)" stroke-linecap="round" stroke-linejoin="round" stroke-width="4" />
	</g>
</svg>
