<svg width="75" height="75" viewBox="0 0 75 75" fill="none" xmlns="http://www.w3.org/2000/svg">
<path d="M51.5625 29.375L23.4375 13.1562" stroke="black" stroke-width="2" stroke-linecap="round" stroke-linejoin="round"/>
<path d="M65.625 49.9999V24.9999C65.6239 23.9039 65.3346 22.8275 64.7861 21.8786C64.2376 20.9297 63.4492 20.1417 62.5 19.5937L40.625 7.09369C39.6749 6.54514 38.5971 6.25635 37.5 6.25635C36.4029 6.25635 35.3251 6.54514 34.375 7.09369L12.5 19.5937C11.5508 20.1417 10.7624 20.9297 10.2139 21.8786C9.66545 22.8275 9.37612 23.9039 9.375 24.9999V49.9999C9.37612 51.096 9.66545 52.1724 10.2139 53.1213C10.7624 54.0702 11.5508 54.8582 12.5 55.4062L34.375 67.9062C35.3251 68.4547 36.4029 68.7435 37.5 68.7435C38.5971 68.7435 39.6749 68.4547 40.625 67.9062L62.5 55.4062C63.4492 54.8582 64.2376 54.0702 64.7861 53.1213C65.3346 52.1724 65.6239 51.096 65.625 49.9999Z" stroke="black" stroke-width="2" stroke-linecap="round" stroke-linejoin="round"/>
<path d="M10.2188 21.75L37.5 37.5313L64.7812 21.75" stroke="black" stroke-width="2" stroke-linecap="round" stroke-linejoin="round"/>
<path d="M37.5 69V37.5" stroke="black" stroke-width="2" stroke-linecap="round" stroke-linejoin="round"/>
</svg>
