<svg width="33" height="77" viewBox="0 0 33 77" fill="none" xmlns="http://www.w3.org/2000/svg">
<path d="M25.1111 47.9056V9.52208C25.1111 7.26189 24.2039 5.09426 22.589 3.49606C20.9741 1.89786 18.7838 1 16.5 1C14.2162 1 12.0259 1.89786 10.411 3.49606C8.79613 5.09426 7.88889 7.26189 7.88889 9.52208V47.9056C5.12396 49.7339 3.02644 52.3937 1.90614 55.4922C0.78583 58.5908 0.702125 61.9638 1.66739 65.113C2.63265 68.2622 4.59569 71.0208 7.2666 72.9812C9.93752 74.9416 13.1747 76 16.5 76C19.8253 76 23.0625 74.9416 25.7334 72.9812C28.4043 71.0208 30.3674 68.2622 31.3326 65.113C32.2979 61.9638 32.2142 58.5908 31.0939 55.4922C29.9736 52.3937 27.876 49.7339 25.1111 47.9056Z" stroke="black" stroke-width="2" stroke-linecap="round" stroke-linejoin="round"/>
</svg>
