<svg width="72" height="72" viewBox="0 0 72 72" fill="none" xmlns="http://www.w3.org/2000/svg">
<path d="M44.0989 16.8514C43.424 17.5399 43.046 18.4656 43.046 19.4297C43.046 20.3938 43.424 21.3194 44.0989 22.0079L49.9921 27.9011C50.6806 28.576 51.6062 28.954 52.5703 28.954C53.5344 28.954 54.4601 28.576 55.1486 27.9011L69.0345 14.0153C70.8865 18.1081 71.4473 22.6681 70.642 27.0877C69.8368 31.5072 67.7038 35.5764 64.5272 38.753C61.3506 41.9296 57.2814 44.0626 52.8619 44.8679C48.4423 45.6731 43.8823 45.1123 39.7895 43.2603L14.3382 68.7115C12.8729 70.1768 10.8856 71 8.81335 71C6.74112 71 4.75376 70.1768 3.28848 68.7115C1.82319 67.2462 1 65.2589 1 63.1866C1 61.1144 1.82319 59.1271 3.28848 57.6618L28.7397 32.2105C26.8877 28.1177 26.3269 23.5577 27.1321 19.1381C27.9374 14.7186 30.0704 10.6494 33.247 7.47281C36.4236 4.29625 40.4928 2.16321 44.9123 1.35795C49.3319 0.552697 53.8919 1.11347 57.9847 2.96554L44.1357 16.8146L44.0989 16.8514Z" stroke="black" stroke-width="2" stroke-linecap="round" stroke-linejoin="round"/>
</svg>
