<svg width="91" height="74" viewBox="0 0 91 74" fill="none" xmlns="http://www.w3.org/2000/svg">
<path d="M35.0239 4.58118C36.0346 3.5588 37.281 2.80337 38.652 2.38204C40.0231 1.96072 41.4765 1.88655 42.883 2.16613C44.2894 2.44572 45.6054 3.07039 46.7139 3.98463C47.8224 4.89886 48.6891 6.07432 49.2369 7.40653C49.7847 8.73873 49.9967 10.1864 49.854 11.6208C49.7114 13.0553 49.2184 14.4321 48.419 15.6288C47.6197 16.8255 46.5386 17.8051 45.272 18.4804C44.0054 19.1558 42.5924 19.506 41.1588 19.5H2M48.0768 69.4188C49.0876 70.4412 50.3339 71.1966 51.705 71.618C53.076 72.0393 54.5294 72.1135 55.9359 71.8339C57.3423 71.5543 58.6583 70.9296 59.7668 70.0154C60.8753 69.1011 61.742 67.9257 62.2898 66.5935C62.8376 65.2613 63.0496 63.8136 62.907 62.3792C62.7643 60.9447 62.2713 59.5679 61.472 58.3712C60.6726 57.1745 59.5915 56.1949 58.3249 55.5196C57.0583 54.8442 55.6453 54.494 54.2117 54.5H2M70.4408 18.3187C71.7063 17.0495 73.2633 16.1133 74.9742 15.5931C76.6851 15.0729 78.4971 14.9847 80.25 15.3362C82.0029 15.6877 83.6426 16.4682 85.0242 17.6085C86.4057 18.7489 87.4865 20.214 88.1709 21.8742C88.8554 23.5345 89.1224 25.3388 88.9483 27.1276C88.7743 28.9163 88.1645 30.6343 87.173 32.1297C86.1815 33.6251 84.8388 34.8518 83.2636 35.7013C81.6885 36.5507 79.9294 36.9968 78.142 37H2" stroke="black" stroke-width="4" stroke-linecap="round" stroke-linejoin="round"/>
</svg>
