<svg width="27" height="27" viewBox="0 0 27 27" fill="none" xmlns="http://www.w3.org/2000/svg">
<path d="M25.3507 12.4324C25.3554 14.2272 24.9361 15.9977 24.1269 17.5997C23.1675 19.5194 21.6925 21.1341 19.8672 22.2629C18.042 23.3917 15.9385 23.99 13.7924 23.9908C11.9976 23.9955 10.2271 23.5762 8.62509 22.767L0.874176 25.3506L3.45781 17.5997C2.64863 15.9977 2.22931 14.2272 2.23398 12.4324C2.23482 10.2863 2.83313 8.18283 3.96192 6.35756C5.09071 4.53229 6.70538 3.05733 8.62509 2.09789C10.2271 1.28871 11.9976 0.869383 13.7924 0.874062H14.4723C17.3066 1.03043 19.9836 2.22675 21.9908 4.23396C23.998 6.24117 25.1944 8.91822 25.3507 11.7525V12.4324Z" stroke="#FCFCFC" stroke-width="1.74833" stroke-linecap="round" stroke-linejoin="round"/>
</svg>
