<svg width="25" height="25" viewBox="0 0 25 25" fill="none" xmlns="http://www.w3.org/2000/svg">
<path d="M17.3376 2.03955H7.13902C4.32276 2.03955 2.03973 4.32258 2.03973 7.13884V17.3374C2.03973 20.1537 4.32276 22.4367 7.13902 22.4367H17.3376C20.1539 22.4367 22.4369 20.1537 22.4369 17.3374V7.13884C22.4369 4.32258 20.1539 2.03955 17.3376 2.03955Z" stroke="#FCFCFC" stroke-width="1.74833" stroke-linecap="round" stroke-linejoin="round"/>
<path d="M16.3178 11.5953C16.4437 12.4441 16.2987 13.3109 15.9035 14.0726C15.5083 14.8342 14.883 15.4518 14.1166 15.8376C13.3501 16.2234 12.4816 16.3576 11.6344 16.2213C10.7872 16.085 10.0046 15.685 9.39791 15.0783C8.79117 14.4716 8.3912 13.689 8.25488 12.8418C8.11856 11.9946 8.25284 11.1261 8.63861 10.3596C9.02438 9.59318 9.64201 8.96789 10.4036 8.5727C11.1653 8.1775 12.0321 8.03253 12.8809 8.15839C13.7467 8.28677 14.5482 8.69021 15.1671 9.3091C15.786 9.92799 16.1894 10.7295 16.3178 11.5953Z" stroke="#FCFCFC" stroke-width="1.74833" stroke-linecap="round" stroke-linejoin="round"/>
<path d="M17.8477 6.62891H17.8583" stroke="#FCFCFC" stroke-width="1.74833" stroke-linecap="round" stroke-linejoin="round"/>
</svg>
