<svg width="23" height="23" viewBox="0 0 23 23" fill="none" xmlns="http://www.w3.org/2000/svg">
<path d="M21.1572 16.0904V19.15C21.1584 19.434 21.1002 19.7152 20.9864 19.9754C20.8726 20.2356 20.7057 20.4693 20.4964 20.6613C20.2871 20.8533 20.04 20.9995 19.771 21.0905C19.5019 21.1815 19.2168 21.2153 18.9339 21.1897C15.7956 20.8487 12.7811 19.7763 10.1325 18.0587C7.66838 16.4929 5.57921 14.4037 4.01339 11.9396C2.28981 9.27898 1.21718 6.24979 0.882423 3.09741C0.856938 2.81539 0.890455 2.53115 0.98084 2.26279C1.07123 1.99442 1.2165 1.74782 1.40741 1.53868C1.59832 1.32954 1.83069 1.16245 2.08972 1.04803C2.34875 0.933615 2.62877 0.874389 2.91194 0.874122H5.97152C6.46646 0.869251 6.94629 1.04452 7.32156 1.36726C7.69684 1.69 7.94196 2.13818 8.01123 2.62828C8.14037 3.60741 8.37986 4.56879 8.72513 5.49408C8.86235 5.85911 8.89204 6.25583 8.81071 6.63722C8.72937 7.01861 8.5404 7.36869 8.2662 7.64598L6.97098 8.9412C8.4228 11.4945 10.5369 13.6085 13.0901 15.0603L14.3853 13.7651C14.6626 13.4909 15.0127 13.302 15.3941 13.2206C15.7755 13.1393 16.1722 13.169 16.5372 13.3062C17.4625 13.6515 18.4239 13.891 19.403 14.0201C19.8985 14.09 20.3509 14.3395 20.6743 14.7212C20.9978 15.103 21.1696 15.5902 21.1572 16.0904Z" stroke="#FCFCFC" stroke-width="1.74833" stroke-linecap="round" stroke-linejoin="round"/>
</svg>
